# xmcd
#
# Track frame offsets:
#	150
#	15402
#	31303
#	40657
#	42437
#	54873
#	67616
#	79693
#	97449
#	119498
#	131275
#	141242
#	152201
#	177742
#	194364
#
# Disc length: 2685 seconds
#
# Revision: 1
# Processed by: cddbd v1.5.1PL2 Copyright (c) Steve Scherf et al.
# Submitted via: EasyCDDAExtractor 6.2.0.3
#
DISCID=c80a7b0f
DTITLE=David Allan Coe - Hammersmith Odeon, London, England (02/24/83) [CD1
DTITLE=)
DYEAR=1983
DGENRE=Country
TTITLE0=Whiskey River
TTITLE1=Lookin' For A Feelin'
TTITLE2=I Can Get Off On You
TTITLE3=Jack Daniels, If You Please
TTITLE4=Fraulein
TTITLE5=The Ride
TTITLE6=Freedom In The Yard
TTITLE7=33rd Of August
TTITLE8=San Francisco Mabel Joy
TTITLE9=Mama Come And Get Your Baby Boy
TTITLE10=Mae Jean Goes To Hollywood
TTITLE11=Brother River
TTITLE12=Pledging My Love
TTITLE13=Crazy Mary
TTITLE14=Jody Like A Melody
EXTD=
EXTT0=
EXTT1=
EXTT2=
EXTT3=
EXTT4=
EXTT5=
EXTT6=
EXTT7=
EXTT8=
EXTT9=
EXTT10=
EXTT11=
EXTT12=
EXTT13=
EXTT14=
PLAYORDER=
